<mxfile host="app.diagrams.net" modified="2023-06-28T15:12:59.752Z" agent="Mozilla/5.0 (Windows NT 10.0; Win64; x64) AppleWebKit/537.36 (KHTML, like Gecko) Chrome/114.0.0.0 Safari/537.36 Edg/114.0.1823.58" etag="6lbcUaUwwUD-ZcOgEUmY" version="21.5.1" type="google">
  <diagram name="Page-1" id="2YBvvXClWsGukQMizWep">
    <mxGraphModel dx="1101" dy="1610" grid="1" gridSize="10" guides="1" tooltips="1" connect="1" arrows="1" fold="1" page="1" pageScale="1" pageWidth="850" pageHeight="1100" math="0" shadow="0">
      <root>
        <mxCell id="0" />
        <mxCell id="1" parent="0" />
        <mxCell id="BdEMzHyVJXGGS6ea9Wbk-1" value="Client" style="shape=umlActor;verticalLabelPosition=bottom;verticalAlign=top;html=1;outlineConnect=0;fontSize=16;" parent="1" vertex="1">
          <mxGeometry x="70" y="40" width="30" height="60" as="geometry" />
        </mxCell>
        <mxCell id="BdEMzHyVJXGGS6ea9Wbk-2" value="" style="endArrow=none;dashed=1;html=1;rounded=0;fontSize=12;startSize=8;endSize=8;curved=1;" parent="1" source="BdEMzHyVJXGGS6ea9Wbk-37" target="BdEMzHyVJXGGS6ea9Wbk-1" edge="1">
          <mxGeometry width="50" height="50" relative="1" as="geometry">
            <mxPoint x="85" y="400" as="sourcePoint" />
            <mxPoint x="260" y="280" as="targetPoint" />
          </mxGeometry>
        </mxCell>
        <mxCell id="BdEMzHyVJXGGS6ea9Wbk-13" value="" style="shape=umlLifeline;perimeter=lifelinePerimeter;whiteSpace=wrap;html=1;container=1;dropTarget=0;collapsible=0;recursiveResize=0;outlineConnect=0;portConstraint=eastwest;newEdgeStyle={&quot;edgeStyle&quot;:&quot;elbowEdgeStyle&quot;,&quot;elbow&quot;:&quot;vertical&quot;,&quot;curved&quot;:0,&quot;rounded&quot;:0};participant=umlBoundary;fontSize=16;" parent="1" vertex="1">
          <mxGeometry x="210" y="70" width="50" height="470" as="geometry" />
        </mxCell>
        <mxCell id="BdEMzHyVJXGGS6ea9Wbk-17" value="" style="html=1;points=[];perimeter=orthogonalPerimeter;outlineConnect=0;targetShapes=umlLifeline;portConstraint=eastwest;newEdgeStyle={&quot;edgeStyle&quot;:&quot;elbowEdgeStyle&quot;,&quot;elbow&quot;:&quot;vertical&quot;,&quot;curved&quot;:0,&quot;rounded&quot;:0};fontSize=16;" parent="BdEMzHyVJXGGS6ea9Wbk-13" vertex="1">
          <mxGeometry x="20" y="80" width="10" height="200" as="geometry" />
        </mxCell>
        <mxCell id="BdEMzHyVJXGGS6ea9Wbk-33" value="" style="html=1;points=[];perimeter=orthogonalPerimeter;outlineConnect=0;targetShapes=umlLifeline;portConstraint=eastwest;newEdgeStyle={&quot;edgeStyle&quot;:&quot;elbowEdgeStyle&quot;,&quot;elbow&quot;:&quot;vertical&quot;,&quot;curved&quot;:0,&quot;rounded&quot;:0};fontSize=16;" parent="BdEMzHyVJXGGS6ea9Wbk-13" vertex="1">
          <mxGeometry x="30" y="210" width="10" height="40" as="geometry" />
        </mxCell>
        <mxCell id="BdEMzHyVJXGGS6ea9Wbk-34" value="render" style="html=1;align=left;spacingLeft=2;endArrow=block;rounded=0;edgeStyle=orthogonalEdgeStyle;curved=0;rounded=0;fontSize=12;startSize=8;endSize=8;" parent="BdEMzHyVJXGGS6ea9Wbk-13" target="BdEMzHyVJXGGS6ea9Wbk-33" edge="1">
          <mxGeometry relative="1" as="geometry">
            <mxPoint x="25" y="190" as="sourcePoint" />
            <Array as="points">
              <mxPoint x="55" y="220" />
            </Array>
          </mxGeometry>
        </mxCell>
        <mxCell id="BdEMzHyVJXGGS6ea9Wbk-14" value="CartView" style="text;html=1;align=center;verticalAlign=middle;resizable=0;points=[];autosize=1;strokeColor=none;fillColor=none;fontSize=16;" parent="1" vertex="1">
          <mxGeometry x="190" y="40" width="90" height="30" as="geometry" />
        </mxCell>
        <mxCell id="BdEMzHyVJXGGS6ea9Wbk-15" value="" style="shape=umlLifeline;perimeter=lifelinePerimeter;whiteSpace=wrap;html=1;container=1;dropTarget=0;collapsible=0;recursiveResize=0;outlineConnect=0;portConstraint=eastwest;newEdgeStyle={&quot;edgeStyle&quot;:&quot;elbowEdgeStyle&quot;,&quot;elbow&quot;:&quot;vertical&quot;,&quot;curved&quot;:0,&quot;rounded&quot;:0};participant=umlBoundary;fontSize=16;size=40;" parent="1" vertex="1">
          <mxGeometry x="375" y="70" width="50" height="490" as="geometry" />
        </mxCell>
        <mxCell id="BdEMzHyVJXGGS6ea9Wbk-36" value="" style="html=1;points=[];perimeter=orthogonalPerimeter;outlineConnect=0;targetShapes=umlLifeline;portConstraint=eastwest;newEdgeStyle={&quot;edgeStyle&quot;:&quot;elbowEdgeStyle&quot;,&quot;elbow&quot;:&quot;vertical&quot;,&quot;curved&quot;:0,&quot;rounded&quot;:0};fontSize=16;" parent="BdEMzHyVJXGGS6ea9Wbk-15" vertex="1">
          <mxGeometry x="20" y="270" width="10" height="190" as="geometry" />
        </mxCell>
        <mxCell id="BdEMzHyVJXGGS6ea9Wbk-16" value="CheckoutView" style="text;html=1;align=center;verticalAlign=middle;resizable=0;points=[];autosize=1;strokeColor=none;fillColor=none;fontSize=16;" parent="1" vertex="1">
          <mxGeometry x="315" y="40" width="130" height="30" as="geometry" />
        </mxCell>
        <mxCell id="BdEMzHyVJXGGS6ea9Wbk-18" value="1. view cart&#39;s information" style="html=1;verticalAlign=bottom;endArrow=block;edgeStyle=elbowEdgeStyle;elbow=vertical;curved=0;rounded=0;fontSize=12;startSize=8;endSize=8;" parent="1" target="BdEMzHyVJXGGS6ea9Wbk-17" edge="1">
          <mxGeometry width="80" relative="1" as="geometry">
            <mxPoint x="90" y="150" as="sourcePoint" />
            <mxPoint x="440" y="280" as="targetPoint" />
          </mxGeometry>
        </mxCell>
        <mxCell id="BdEMzHyVJXGGS6ea9Wbk-19" value="" style="shape=umlLifeline;perimeter=lifelinePerimeter;whiteSpace=wrap;html=1;container=1;dropTarget=0;collapsible=0;recursiveResize=0;outlineConnect=0;portConstraint=eastwest;newEdgeStyle={&quot;edgeStyle&quot;:&quot;elbowEdgeStyle&quot;,&quot;elbow&quot;:&quot;vertical&quot;,&quot;curved&quot;:0,&quot;rounded&quot;:0};participant=umlControl;fontSize=16;size=40;" parent="1" vertex="1">
          <mxGeometry x="530" y="70" width="40" height="390" as="geometry" />
        </mxCell>
        <mxCell id="BdEMzHyVJXGGS6ea9Wbk-21" value="" style="html=1;points=[];perimeter=orthogonalPerimeter;outlineConnect=0;targetShapes=umlLifeline;portConstraint=eastwest;newEdgeStyle={&quot;edgeStyle&quot;:&quot;elbowEdgeStyle&quot;,&quot;elbow&quot;:&quot;vertical&quot;,&quot;curved&quot;:0,&quot;rounded&quot;:0};fontSize=16;" parent="BdEMzHyVJXGGS6ea9Wbk-19" vertex="1">
          <mxGeometry x="15" y="100" width="10" height="70" as="geometry" />
        </mxCell>
        <mxCell id="BdEMzHyVJXGGS6ea9Wbk-20" value="CartController" style="text;html=1;align=center;verticalAlign=middle;resizable=0;points=[];autosize=1;strokeColor=none;fillColor=none;fontSize=16;" parent="1" vertex="1">
          <mxGeometry x="500" y="40" width="120" height="30" as="geometry" />
        </mxCell>
        <mxCell id="BdEMzHyVJXGGS6ea9Wbk-22" value="1.2 get cart infomation (userId)" style="html=1;verticalAlign=bottom;endArrow=block;edgeStyle=elbowEdgeStyle;elbow=vertical;curved=0;rounded=0;fontSize=12;startSize=8;endSize=8;" parent="1" source="BdEMzHyVJXGGS6ea9Wbk-17" target="BdEMzHyVJXGGS6ea9Wbk-21" edge="1">
          <mxGeometry width="80" relative="1" as="geometry">
            <mxPoint x="360" y="280" as="sourcePoint" />
            <mxPoint x="440" y="280" as="targetPoint" />
            <Array as="points">
              <mxPoint x="460" y="170" />
              <mxPoint x="370" y="180" />
              <mxPoint x="290" y="210" />
            </Array>
          </mxGeometry>
        </mxCell>
        <mxCell id="BdEMzHyVJXGGS6ea9Wbk-26" value="" style="shape=umlLifeline;perimeter=lifelinePerimeter;whiteSpace=wrap;html=1;container=1;dropTarget=0;collapsible=0;recursiveResize=0;outlineConnect=0;portConstraint=eastwest;newEdgeStyle={&quot;edgeStyle&quot;:&quot;elbowEdgeStyle&quot;,&quot;elbow&quot;:&quot;vertical&quot;,&quot;curved&quot;:0,&quot;rounded&quot;:0};participant=umlEntity;fontSize=16;" parent="1" vertex="1">
          <mxGeometry x="670" y="70" width="40" height="160" as="geometry" />
        </mxCell>
        <mxCell id="BdEMzHyVJXGGS6ea9Wbk-28" value="" style="html=1;points=[];perimeter=orthogonalPerimeter;outlineConnect=0;targetShapes=umlLifeline;portConstraint=eastwest;newEdgeStyle={&quot;edgeStyle&quot;:&quot;elbowEdgeStyle&quot;,&quot;elbow&quot;:&quot;vertical&quot;,&quot;curved&quot;:0,&quot;rounded&quot;:0};fontSize=16;" parent="BdEMzHyVJXGGS6ea9Wbk-26" vertex="1">
          <mxGeometry x="15" y="120" width="10" height="30" as="geometry" />
        </mxCell>
        <mxCell id="BdEMzHyVJXGGS6ea9Wbk-27" value="CartModell" style="text;html=1;align=center;verticalAlign=middle;resizable=0;points=[];autosize=1;strokeColor=none;fillColor=none;fontSize=16;" parent="1" vertex="1">
          <mxGeometry x="640" y="38" width="100" height="30" as="geometry" />
        </mxCell>
        <mxCell id="BdEMzHyVJXGGS6ea9Wbk-30" value="1.3 get cart of users (userId)" style="html=1;verticalAlign=bottom;endArrow=block;edgeStyle=elbowEdgeStyle;elbow=vertical;curved=0;rounded=0;fontSize=12;startSize=8;endSize=8;" parent="1" source="BdEMzHyVJXGGS6ea9Wbk-19" target="BdEMzHyVJXGGS6ea9Wbk-26" edge="1">
          <mxGeometry width="80" relative="1" as="geometry">
            <mxPoint x="360" y="280" as="sourcePoint" />
            <mxPoint x="440" y="280" as="targetPoint" />
            <Array as="points">
              <mxPoint x="600" y="190" />
            </Array>
          </mxGeometry>
        </mxCell>
        <mxCell id="BdEMzHyVJXGGS6ea9Wbk-31" value="return" style="html=1;verticalAlign=bottom;endArrow=open;dashed=1;endSize=8;edgeStyle=elbowEdgeStyle;elbow=vertical;curved=0;rounded=0;fontSize=12;" parent="1" source="BdEMzHyVJXGGS6ea9Wbk-26" target="BdEMzHyVJXGGS6ea9Wbk-19" edge="1">
          <mxGeometry relative="1" as="geometry">
            <mxPoint x="440" y="280" as="sourcePoint" />
            <mxPoint x="360" y="280" as="targetPoint" />
            <Array as="points">
              <mxPoint x="620" y="220" />
            </Array>
          </mxGeometry>
        </mxCell>
        <mxCell id="BdEMzHyVJXGGS6ea9Wbk-32" value="return" style="html=1;verticalAlign=bottom;endArrow=open;dashed=1;endSize=8;edgeStyle=elbowEdgeStyle;elbow=vertical;curved=0;rounded=0;fontSize=12;" parent="1" source="BdEMzHyVJXGGS6ea9Wbk-19" target="BdEMzHyVJXGGS6ea9Wbk-17" edge="1">
          <mxGeometry relative="1" as="geometry">
            <mxPoint x="440" y="280" as="sourcePoint" />
            <mxPoint x="230" y="220" as="targetPoint" />
            <Array as="points">
              <mxPoint x="430" y="230" />
              <mxPoint x="480" y="240" />
            </Array>
          </mxGeometry>
        </mxCell>
        <mxCell id="BdEMzHyVJXGGS6ea9Wbk-35" value="1.4checkout(products)" style="html=1;verticalAlign=bottom;endArrow=block;edgeStyle=elbowEdgeStyle;elbow=vertical;curved=0;rounded=0;fontSize=12;startSize=8;endSize=8;" parent="1" source="BdEMzHyVJXGGS6ea9Wbk-17" target="BdEMzHyVJXGGS6ea9Wbk-15" edge="1">
          <mxGeometry width="80" relative="1" as="geometry">
            <mxPoint x="360" y="280" as="sourcePoint" />
            <mxPoint x="440" y="280" as="targetPoint" />
            <Array as="points">
              <mxPoint x="330" y="340" />
            </Array>
          </mxGeometry>
        </mxCell>
        <mxCell id="BdEMzHyVJXGGS6ea9Wbk-38" value="" style="endArrow=none;dashed=1;html=1;rounded=0;fontSize=12;startSize=8;endSize=8;curved=1;" parent="1" target="BdEMzHyVJXGGS6ea9Wbk-37" edge="1">
          <mxGeometry width="50" height="50" relative="1" as="geometry">
            <mxPoint x="85" y="580" as="sourcePoint" />
            <mxPoint x="85" y="100" as="targetPoint" />
          </mxGeometry>
        </mxCell>
        <mxCell id="BdEMzHyVJXGGS6ea9Wbk-37" value="" style="html=1;points=[];perimeter=orthogonalPerimeter;outlineConnect=0;targetShapes=umlLifeline;portConstraint=eastwest;newEdgeStyle={&quot;edgeStyle&quot;:&quot;elbowEdgeStyle&quot;,&quot;elbow&quot;:&quot;vertical&quot;,&quot;curved&quot;:0,&quot;rounded&quot;:0};fontSize=16;" parent="1" vertex="1">
          <mxGeometry x="80" y="140" width="10" height="420" as="geometry" />
        </mxCell>
        <mxCell id="BdEMzHyVJXGGS6ea9Wbk-39" value="require_input_value" style="html=1;verticalAlign=bottom;endArrow=open;dashed=1;endSize=8;edgeStyle=elbowEdgeStyle;elbow=vertical;curved=0;rounded=0;fontSize=12;" parent="1" source="BdEMzHyVJXGGS6ea9Wbk-15" target="BdEMzHyVJXGGS6ea9Wbk-37" edge="1">
          <mxGeometry x="0.0016" relative="1" as="geometry">
            <mxPoint x="400" y="470" as="sourcePoint" />
            <mxPoint x="320" y="470" as="targetPoint" />
            <Array as="points">
              <mxPoint x="340" y="380" />
            </Array>
            <mxPoint as="offset" />
          </mxGeometry>
        </mxCell>
        <mxCell id="BdEMzHyVJXGGS6ea9Wbk-40" value="2. Enter input form" style="html=1;verticalAlign=bottom;endArrow=block;edgeStyle=elbowEdgeStyle;elbow=vertical;curved=0;rounded=0;fontSize=12;startSize=8;endSize=8;" parent="1" source="BdEMzHyVJXGGS6ea9Wbk-37" edge="1">
          <mxGeometry width="80" relative="1" as="geometry">
            <mxPoint x="320" y="470" as="sourcePoint" />
            <mxPoint x="400" y="410" as="targetPoint" />
            <Array as="points">
              <mxPoint x="340" y="410" />
              <mxPoint x="320" y="420" />
            </Array>
            <mxPoint as="offset" />
          </mxGeometry>
        </mxCell>
        <mxCell id="BdEMzHyVJXGGS6ea9Wbk-41" value="2.1 createOrder(user, product)" style="html=1;verticalAlign=bottom;endArrow=block;edgeStyle=elbowEdgeStyle;elbow=vertical;curved=0;rounded=0;fontSize=12;startSize=8;endSize=8;" parent="1" target="BdEMzHyVJXGGS6ea9Wbk-42" edge="1">
          <mxGeometry width="80" relative="1" as="geometry">
            <mxPoint x="400" y="430" as="sourcePoint" />
            <mxPoint x="400" y="470" as="targetPoint" />
            <Array as="points">
              <mxPoint x="380" y="440" />
            </Array>
          </mxGeometry>
        </mxCell>
        <mxCell id="BdEMzHyVJXGGS6ea9Wbk-43" value="" style="shape=umlLifeline;perimeter=lifelinePerimeter;whiteSpace=wrap;html=1;container=1;dropTarget=0;collapsible=0;recursiveResize=0;outlineConnect=0;portConstraint=eastwest;newEdgeStyle={&quot;edgeStyle&quot;:&quot;elbowEdgeStyle&quot;,&quot;elbow&quot;:&quot;vertical&quot;,&quot;curved&quot;:0,&quot;rounded&quot;:0};participant=umlEntity;fontSize=16;" parent="1" vertex="1">
          <mxGeometry x="910" y="68" width="40" height="482" as="geometry" />
        </mxCell>
        <mxCell id="BdEMzHyVJXGGS6ea9Wbk-48" value="" style="html=1;points=[];perimeter=orthogonalPerimeter;outlineConnect=0;targetShapes=umlLifeline;portConstraint=eastwest;newEdgeStyle={&quot;edgeStyle&quot;:&quot;elbowEdgeStyle&quot;,&quot;elbow&quot;:&quot;vertical&quot;,&quot;curved&quot;:0,&quot;rounded&quot;:0};fontSize=16;" parent="BdEMzHyVJXGGS6ea9Wbk-43" vertex="1">
          <mxGeometry x="15" y="402" width="10" height="38" as="geometry" />
        </mxCell>
        <mxCell id="BdEMzHyVJXGGS6ea9Wbk-44" value="OrderModel" style="text;html=1;align=center;verticalAlign=middle;resizable=0;points=[];autosize=1;strokeColor=none;fillColor=none;fontSize=16;" parent="1" vertex="1">
          <mxGeometry x="875" y="30" width="110" height="30" as="geometry" />
        </mxCell>
        <mxCell id="BdEMzHyVJXGGS6ea9Wbk-45" value="" style="shape=umlLifeline;perimeter=lifelinePerimeter;whiteSpace=wrap;html=1;container=1;dropTarget=0;collapsible=0;recursiveResize=0;outlineConnect=0;portConstraint=eastwest;newEdgeStyle={&quot;edgeStyle&quot;:&quot;elbowEdgeStyle&quot;,&quot;elbow&quot;:&quot;vertical&quot;,&quot;curved&quot;:0,&quot;rounded&quot;:0};participant=umlControl;fontSize=16;" parent="1" vertex="1">
          <mxGeometry x="780" y="70" width="40" height="490" as="geometry" />
        </mxCell>
        <mxCell id="BdEMzHyVJXGGS6ea9Wbk-42" value="" style="html=1;points=[];perimeter=orthogonalPerimeter;outlineConnect=0;targetShapes=umlLifeline;portConstraint=eastwest;newEdgeStyle={&quot;edgeStyle&quot;:&quot;elbowEdgeStyle&quot;,&quot;elbow&quot;:&quot;vertical&quot;,&quot;curved&quot;:0,&quot;rounded&quot;:0};fontSize=16;" parent="BdEMzHyVJXGGS6ea9Wbk-45" vertex="1">
          <mxGeometry x="15" y="370" width="10" height="80" as="geometry" />
        </mxCell>
        <mxCell id="BdEMzHyVJXGGS6ea9Wbk-46" value="OrderController" style="text;html=1;align=center;verticalAlign=middle;resizable=0;points=[];autosize=1;strokeColor=none;fillColor=none;fontSize=16;" parent="1" vertex="1">
          <mxGeometry x="735" y="38" width="130" height="30" as="geometry" />
        </mxCell>
        <mxCell id="BdEMzHyVJXGGS6ea9Wbk-47" value="2.2 createOrder(user, product)" style="html=1;verticalAlign=bottom;endArrow=block;edgeStyle=elbowEdgeStyle;elbow=vertical;curved=0;rounded=0;fontSize=12;startSize=8;endSize=8;" parent="1" target="BdEMzHyVJXGGS6ea9Wbk-48" edge="1">
          <mxGeometry x="0.1223" y="10" width="80" relative="1" as="geometry">
            <mxPoint x="800" y="470" as="sourcePoint" />
            <mxPoint x="820" y="470" as="targetPoint" />
            <Array as="points" />
            <mxPoint as="offset" />
          </mxGeometry>
        </mxCell>
        <mxCell id="BdEMzHyVJXGGS6ea9Wbk-49" value="inform" style="html=1;verticalAlign=bottom;endArrow=open;dashed=1;endSize=8;edgeStyle=elbowEdgeStyle;elbow=vertical;curved=0;rounded=0;fontSize=12;" parent="1" source="BdEMzHyVJXGGS6ea9Wbk-15" target="BdEMzHyVJXGGS6ea9Wbk-37" edge="1">
          <mxGeometry relative="1" as="geometry">
            <mxPoint x="510" y="470" as="sourcePoint" />
            <mxPoint x="430" y="470" as="targetPoint" />
            <Array as="points">
              <mxPoint x="170" y="530" />
              <mxPoint x="300" y="470" />
            </Array>
          </mxGeometry>
        </mxCell>
        <mxCell id="BdEMzHyVJXGGS6ea9Wbk-50" value="Buy Products" style="text;html=1;align=center;verticalAlign=middle;resizable=0;points=[];autosize=1;strokeColor=none;fillColor=none;fontSize=16;" parent="1" vertex="1">
          <mxGeometry x="40" y="-50" width="120" height="30" as="geometry" />
        </mxCell>
        <mxCell id="BdEMzHyVJXGGS6ea9Wbk-51" value="Buy" style="shape=umlFrame;whiteSpace=wrap;html=1;pointerEvents=0;fontSize=16;" parent="1" vertex="1">
          <mxGeometry x="40" y="-10" width="960" height="600" as="geometry" />
        </mxCell>
        <mxCell id="BdEMzHyVJXGGS6ea9Wbk-53" value="" style="shape=umlLifeline;perimeter=lifelinePerimeter;whiteSpace=wrap;html=1;container=1;dropTarget=0;collapsible=0;recursiveResize=0;outlineConnect=0;portConstraint=eastwest;newEdgeStyle={&quot;edgeStyle&quot;:&quot;elbowEdgeStyle&quot;,&quot;elbow&quot;:&quot;vertical&quot;,&quot;curved&quot;:0,&quot;rounded&quot;:0};participant=umlActor;fontSize=16;" parent="1" vertex="1">
          <mxGeometry x="80" y="730" width="20" height="570" as="geometry" />
        </mxCell>
        <mxCell id="BdEMzHyVJXGGS6ea9Wbk-63" value="" style="html=1;points=[];perimeter=orthogonalPerimeter;outlineConnect=0;targetShapes=umlLifeline;portConstraint=eastwest;newEdgeStyle={&quot;edgeStyle&quot;:&quot;elbowEdgeStyle&quot;,&quot;elbow&quot;:&quot;vertical&quot;,&quot;curved&quot;:0,&quot;rounded&quot;:0};fontSize=16;" parent="BdEMzHyVJXGGS6ea9Wbk-53" vertex="1">
          <mxGeometry x="5" y="60" width="10" height="510" as="geometry" />
        </mxCell>
        <mxCell id="BdEMzHyVJXGGS6ea9Wbk-54" value="" style="shape=umlLifeline;perimeter=lifelinePerimeter;whiteSpace=wrap;html=1;container=1;dropTarget=0;collapsible=0;recursiveResize=0;outlineConnect=0;portConstraint=eastwest;newEdgeStyle={&quot;edgeStyle&quot;:&quot;elbowEdgeStyle&quot;,&quot;elbow&quot;:&quot;vertical&quot;,&quot;curved&quot;:0,&quot;rounded&quot;:0};participant=umlBoundary;fontSize=16;" parent="1" vertex="1">
          <mxGeometry x="200" y="730" width="50" height="510" as="geometry" />
        </mxCell>
        <mxCell id="BdEMzHyVJXGGS6ea9Wbk-64" value="" style="html=1;points=[];perimeter=orthogonalPerimeter;outlineConnect=0;targetShapes=umlLifeline;portConstraint=eastwest;newEdgeStyle={&quot;edgeStyle&quot;:&quot;elbowEdgeStyle&quot;,&quot;elbow&quot;:&quot;vertical&quot;,&quot;curved&quot;:0,&quot;rounded&quot;:0};fontSize=16;" parent="BdEMzHyVJXGGS6ea9Wbk-54" vertex="1">
          <mxGeometry x="20" y="100" width="10" height="220" as="geometry" />
        </mxCell>
        <mxCell id="BdEMzHyVJXGGS6ea9Wbk-78" value="" style="html=1;points=[];perimeter=orthogonalPerimeter;outlineConnect=0;targetShapes=umlLifeline;portConstraint=eastwest;newEdgeStyle={&quot;edgeStyle&quot;:&quot;elbowEdgeStyle&quot;,&quot;elbow&quot;:&quot;vertical&quot;,&quot;curved&quot;:0,&quot;rounded&quot;:0};fontSize=16;" parent="BdEMzHyVJXGGS6ea9Wbk-54" vertex="1">
          <mxGeometry x="30" y="210" width="10" height="40" as="geometry" />
        </mxCell>
        <mxCell id="BdEMzHyVJXGGS6ea9Wbk-79" value="render" style="html=1;align=left;spacingLeft=2;endArrow=block;rounded=0;edgeStyle=orthogonalEdgeStyle;curved=0;rounded=0;fontSize=12;startSize=8;endSize=8;" parent="BdEMzHyVJXGGS6ea9Wbk-54" target="BdEMzHyVJXGGS6ea9Wbk-78" edge="1">
          <mxGeometry relative="1" as="geometry">
            <mxPoint x="35" y="190" as="sourcePoint" />
            <Array as="points">
              <mxPoint x="65" y="220" />
            </Array>
          </mxGeometry>
        </mxCell>
        <mxCell id="BdEMzHyVJXGGS6ea9Wbk-55" value="" style="shape=umlLifeline;perimeter=lifelinePerimeter;whiteSpace=wrap;html=1;container=1;dropTarget=0;collapsible=0;recursiveResize=0;outlineConnect=0;portConstraint=eastwest;newEdgeStyle={&quot;edgeStyle&quot;:&quot;elbowEdgeStyle&quot;,&quot;elbow&quot;:&quot;vertical&quot;,&quot;curved&quot;:0,&quot;rounded&quot;:0};participant=umlBoundary;fontSize=16;" parent="1" vertex="1">
          <mxGeometry x="355" y="730" width="50" height="510" as="geometry" />
        </mxCell>
        <mxCell id="BdEMzHyVJXGGS6ea9Wbk-82" value="" style="html=1;points=[];perimeter=orthogonalPerimeter;outlineConnect=0;targetShapes=umlLifeline;portConstraint=eastwest;newEdgeStyle={&quot;edgeStyle&quot;:&quot;elbowEdgeStyle&quot;,&quot;elbow&quot;:&quot;vertical&quot;,&quot;curved&quot;:0,&quot;rounded&quot;:0};fontSize=16;" parent="BdEMzHyVJXGGS6ea9Wbk-55" vertex="1">
          <mxGeometry x="20" y="290" width="10" height="180" as="geometry" />
        </mxCell>
        <mxCell id="BdEMzHyVJXGGS6ea9Wbk-56" value="" style="shape=umlLifeline;perimeter=lifelinePerimeter;whiteSpace=wrap;html=1;container=1;dropTarget=0;collapsible=0;recursiveResize=0;outlineConnect=0;portConstraint=eastwest;newEdgeStyle={&quot;edgeStyle&quot;:&quot;elbowEdgeStyle&quot;,&quot;elbow&quot;:&quot;vertical&quot;,&quot;curved&quot;:0,&quot;rounded&quot;:0};participant=umlControl;fontSize=16;" parent="1" vertex="1">
          <mxGeometry x="515" y="730" width="40" height="610" as="geometry" />
        </mxCell>
        <mxCell id="BdEMzHyVJXGGS6ea9Wbk-87" value="" style="html=1;points=[];perimeter=orthogonalPerimeter;outlineConnect=0;targetShapes=umlLifeline;portConstraint=eastwest;newEdgeStyle={&quot;edgeStyle&quot;:&quot;elbowEdgeStyle&quot;,&quot;elbow&quot;:&quot;vertical&quot;,&quot;curved&quot;:0,&quot;rounded&quot;:0};fontSize=16;" parent="BdEMzHyVJXGGS6ea9Wbk-56" vertex="1">
          <mxGeometry x="15" y="430" width="10" height="120" as="geometry" />
        </mxCell>
        <mxCell id="BdEMzHyVJXGGS6ea9Wbk-57" value="" style="shape=umlLifeline;perimeter=lifelinePerimeter;whiteSpace=wrap;html=1;container=1;dropTarget=0;collapsible=0;recursiveResize=0;outlineConnect=0;portConstraint=eastwest;newEdgeStyle={&quot;edgeStyle&quot;:&quot;elbowEdgeStyle&quot;,&quot;elbow&quot;:&quot;vertical&quot;,&quot;curved&quot;:0,&quot;rounded&quot;:0};participant=umlEntity;fontSize=16;" parent="1" vertex="1">
          <mxGeometry x="950" y="735" width="40" height="525" as="geometry" />
        </mxCell>
        <mxCell id="BdEMzHyVJXGGS6ea9Wbk-73" value="" style="html=1;points=[];perimeter=orthogonalPerimeter;outlineConnect=0;targetShapes=umlLifeline;portConstraint=eastwest;newEdgeStyle={&quot;edgeStyle&quot;:&quot;elbowEdgeStyle&quot;,&quot;elbow&quot;:&quot;vertical&quot;,&quot;curved&quot;:0,&quot;rounded&quot;:0};fontSize=16;" parent="BdEMzHyVJXGGS6ea9Wbk-57" vertex="1">
          <mxGeometry x="20" y="125" width="10" height="35" as="geometry" />
        </mxCell>
        <mxCell id="BdEMzHyVJXGGS6ea9Wbk-89" value="" style="html=1;points=[];perimeter=orthogonalPerimeter;outlineConnect=0;targetShapes=umlLifeline;portConstraint=eastwest;newEdgeStyle={&quot;edgeStyle&quot;:&quot;elbowEdgeStyle&quot;,&quot;elbow&quot;:&quot;vertical&quot;,&quot;curved&quot;:0,&quot;rounded&quot;:0};fontSize=16;" parent="BdEMzHyVJXGGS6ea9Wbk-57" vertex="1">
          <mxGeometry x="10" y="445" width="10" height="80" as="geometry" />
        </mxCell>
        <mxCell id="BdEMzHyVJXGGS6ea9Wbk-90" value="createBooking(time, idService)" style="html=1;verticalAlign=bottom;endArrow=block;edgeStyle=elbowEdgeStyle;elbow=vertical;curved=0;rounded=0;fontSize=12;startSize=8;endSize=8;" parent="BdEMzHyVJXGGS6ea9Wbk-57" target="BdEMzHyVJXGGS6ea9Wbk-89" edge="1">
          <mxGeometry relative="1" as="geometry">
            <mxPoint x="-220" y="445" as="sourcePoint" />
            <Array as="points">
              <mxPoint x="-410" y="445" />
            </Array>
          </mxGeometry>
        </mxCell>
        <mxCell id="BdEMzHyVJXGGS6ea9Wbk-58" value="PetCaringView" style="text;html=1;align=center;verticalAlign=middle;resizable=0;points=[];autosize=1;strokeColor=none;fillColor=none;fontSize=16;" parent="1" vertex="1">
          <mxGeometry x="155" y="688" width="130" height="30" as="geometry" />
        </mxCell>
        <mxCell id="BdEMzHyVJXGGS6ea9Wbk-59" value="Clien" style="text;html=1;align=center;verticalAlign=middle;resizable=0;points=[];autosize=1;strokeColor=none;fillColor=none;fontSize=16;" parent="1" vertex="1">
          <mxGeometry x="50" y="688" width="60" height="30" as="geometry" />
        </mxCell>
        <mxCell id="BdEMzHyVJXGGS6ea9Wbk-60" value="BookingView" style="text;html=1;align=center;verticalAlign=middle;resizable=0;points=[];autosize=1;strokeColor=none;fillColor=none;fontSize=16;" parent="1" vertex="1">
          <mxGeometry x="310" y="688" width="120" height="30" as="geometry" />
        </mxCell>
        <mxCell id="BdEMzHyVJXGGS6ea9Wbk-61" value="BookingController" style="text;html=1;align=center;verticalAlign=middle;resizable=0;points=[];autosize=1;strokeColor=none;fillColor=none;fontSize=16;" parent="1" vertex="1">
          <mxGeometry x="475" y="688" width="150" height="30" as="geometry" />
        </mxCell>
        <mxCell id="BdEMzHyVJXGGS6ea9Wbk-62" value="BookingModel" style="text;html=1;align=center;verticalAlign=middle;resizable=0;points=[];autosize=1;strokeColor=none;fillColor=none;fontSize=16;" parent="1" vertex="1">
          <mxGeometry x="900" y="680" width="120" height="30" as="geometry" />
        </mxCell>
        <mxCell id="BdEMzHyVJXGGS6ea9Wbk-65" value="1. getPerService()" style="html=1;verticalAlign=bottom;endArrow=block;edgeStyle=elbowEdgeStyle;elbow=vertical;curved=0;rounded=0;fontSize=12;startSize=8;endSize=8;" parent="1" source="BdEMzHyVJXGGS6ea9Wbk-53" target="BdEMzHyVJXGGS6ea9Wbk-54" edge="1">
          <mxGeometry x="0.0515" width="80" relative="1" as="geometry">
            <mxPoint x="390" y="810" as="sourcePoint" />
            <mxPoint x="470" y="810" as="targetPoint" />
            <Array as="points">
              <mxPoint x="170" y="830" />
            </Array>
            <mxPoint as="offset" />
          </mxGeometry>
        </mxCell>
        <mxCell id="BdEMzHyVJXGGS6ea9Wbk-66" value="" style="shape=umlLifeline;perimeter=lifelinePerimeter;whiteSpace=wrap;html=1;container=1;dropTarget=0;collapsible=0;recursiveResize=0;outlineConnect=0;portConstraint=eastwest;newEdgeStyle={&quot;edgeStyle&quot;:&quot;elbowEdgeStyle&quot;,&quot;elbow&quot;:&quot;vertical&quot;,&quot;curved&quot;:0,&quot;rounded&quot;:0};participant=umlControl;fontSize=16;" parent="1" vertex="1">
          <mxGeometry x="695" y="730" width="40" height="250" as="geometry" />
        </mxCell>
        <mxCell id="BdEMzHyVJXGGS6ea9Wbk-71" value="" style="html=1;points=[];perimeter=orthogonalPerimeter;outlineConnect=0;targetShapes=umlLifeline;portConstraint=eastwest;newEdgeStyle={&quot;edgeStyle&quot;:&quot;elbowEdgeStyle&quot;,&quot;elbow&quot;:&quot;vertical&quot;,&quot;curved&quot;:0,&quot;rounded&quot;:0};fontSize=16;" parent="BdEMzHyVJXGGS6ea9Wbk-66" vertex="1">
          <mxGeometry x="15" y="120" width="10" height="50" as="geometry" />
        </mxCell>
        <mxCell id="BdEMzHyVJXGGS6ea9Wbk-67" value="PetCaringController" style="text;html=1;align=center;verticalAlign=middle;resizable=0;points=[];autosize=1;strokeColor=none;fillColor=none;fontSize=16;" parent="1" vertex="1">
          <mxGeometry x="630" y="688" width="160" height="30" as="geometry" />
        </mxCell>
        <mxCell id="BdEMzHyVJXGGS6ea9Wbk-68" value="" style="shape=umlLifeline;perimeter=lifelinePerimeter;whiteSpace=wrap;html=1;container=1;dropTarget=0;collapsible=0;recursiveResize=0;outlineConnect=0;portConstraint=eastwest;newEdgeStyle={&quot;edgeStyle&quot;:&quot;elbowEdgeStyle&quot;,&quot;elbow&quot;:&quot;vertical&quot;,&quot;curved&quot;:0,&quot;rounded&quot;:0};participant=umlEntity;fontSize=16;" parent="1" vertex="1">
          <mxGeometry x="825" y="730" width="40" height="510" as="geometry" />
        </mxCell>
        <mxCell id="BdEMzHyVJXGGS6ea9Wbk-69" value="PetCaringModel" style="text;html=1;align=center;verticalAlign=middle;resizable=0;points=[];autosize=1;strokeColor=none;fillColor=none;fontSize=16;" parent="1" vertex="1">
          <mxGeometry x="780" y="700" width="140" height="30" as="geometry" />
        </mxCell>
        <mxCell id="BdEMzHyVJXGGS6ea9Wbk-70" value="1.1 getPetService()" style="html=1;verticalAlign=bottom;endArrow=block;edgeStyle=elbowEdgeStyle;elbow=vertical;curved=0;rounded=0;fontSize=12;startSize=8;endSize=8;" parent="1" source="BdEMzHyVJXGGS6ea9Wbk-54" target="BdEMzHyVJXGGS6ea9Wbk-71" edge="1">
          <mxGeometry x="-0.0277" width="80" relative="1" as="geometry">
            <mxPoint x="480" y="810" as="sourcePoint" />
            <mxPoint x="560" y="810" as="targetPoint" />
            <Array as="points">
              <mxPoint x="590" y="850" />
            </Array>
            <mxPoint x="1" as="offset" />
          </mxGeometry>
        </mxCell>
        <mxCell id="BdEMzHyVJXGGS6ea9Wbk-74" value="1.2 getPetService" style="html=1;verticalAlign=bottom;startArrow=oval;endArrow=block;startSize=8;edgeStyle=elbowEdgeStyle;elbow=vertical;curved=0;rounded=0;fontSize=12;" parent="1" source="BdEMzHyVJXGGS6ea9Wbk-66" target="BdEMzHyVJXGGS6ea9Wbk-73" edge="1">
          <mxGeometry relative="1" as="geometry">
            <mxPoint x="910" y="860" as="sourcePoint" />
            <Array as="points">
              <mxPoint x="930" y="870" />
            </Array>
          </mxGeometry>
        </mxCell>
        <mxCell id="BdEMzHyVJXGGS6ea9Wbk-76" value="return" style="html=1;verticalAlign=bottom;endArrow=open;dashed=1;endSize=8;edgeStyle=elbowEdgeStyle;elbow=vertical;curved=0;rounded=0;fontSize=12;" parent="1" source="BdEMzHyVJXGGS6ea9Wbk-57" target="BdEMzHyVJXGGS6ea9Wbk-71" edge="1">
          <mxGeometry relative="1" as="geometry">
            <mxPoint x="560" y="810" as="sourcePoint" />
            <mxPoint x="480" y="810" as="targetPoint" />
            <Array as="points">
              <mxPoint x="870" y="890" />
            </Array>
          </mxGeometry>
        </mxCell>
        <mxCell id="BdEMzHyVJXGGS6ea9Wbk-77" value="return" style="html=1;verticalAlign=bottom;endArrow=open;dashed=1;endSize=8;edgeStyle=elbowEdgeStyle;elbow=vertical;curved=0;rounded=0;fontSize=12;" parent="1" source="BdEMzHyVJXGGS6ea9Wbk-66" target="BdEMzHyVJXGGS6ea9Wbk-54" edge="1">
          <mxGeometry relative="1" as="geometry">
            <mxPoint x="980" y="900" as="sourcePoint" />
            <mxPoint x="730" y="900" as="targetPoint" />
            <Array as="points">
              <mxPoint x="480" y="900" />
            </Array>
          </mxGeometry>
        </mxCell>
        <mxCell id="BdEMzHyVJXGGS6ea9Wbk-83" value="1.3 booking()" style="html=1;verticalAlign=bottom;startArrow=oval;endArrow=block;startSize=8;edgeStyle=elbowEdgeStyle;elbow=vertical;curved=0;rounded=0;fontSize=12;" parent="1" source="BdEMzHyVJXGGS6ea9Wbk-54" target="BdEMzHyVJXGGS6ea9Wbk-82" edge="1">
          <mxGeometry relative="1" as="geometry">
            <mxPoint x="315" y="1020" as="sourcePoint" />
            <Array as="points">
              <mxPoint x="330" y="1020" />
            </Array>
          </mxGeometry>
        </mxCell>
        <mxCell id="BdEMzHyVJXGGS6ea9Wbk-84" value="return" style="html=1;verticalAlign=bottom;endArrow=open;dashed=1;endSize=8;edgeStyle=elbowEdgeStyle;elbow=vertical;curved=0;rounded=0;fontSize=12;" parent="1" source="BdEMzHyVJXGGS6ea9Wbk-55" target="BdEMzHyVJXGGS6ea9Wbk-53" edge="1">
          <mxGeometry x="-0.1787" y="-10" relative="1" as="geometry">
            <mxPoint x="560" y="810" as="sourcePoint" />
            <mxPoint x="480" y="810" as="targetPoint" />
            <Array as="points">
              <mxPoint x="270" y="1090" />
              <mxPoint x="510" y="810" />
            </Array>
            <mxPoint x="1" as="offset" />
          </mxGeometry>
        </mxCell>
        <mxCell id="BdEMzHyVJXGGS6ea9Wbk-85" value="inputValule" style="html=1;verticalAlign=bottom;endArrow=block;edgeStyle=elbowEdgeStyle;elbow=vertical;curved=0;rounded=0;fontSize=12;startSize=8;endSize=8;" parent="1" source="BdEMzHyVJXGGS6ea9Wbk-53" target="BdEMzHyVJXGGS6ea9Wbk-55" edge="1">
          <mxGeometry width="80" relative="1" as="geometry">
            <mxPoint x="520" y="1130" as="sourcePoint" />
            <mxPoint x="600" y="1130" as="targetPoint" />
            <Array as="points">
              <mxPoint x="280" y="1140" />
            </Array>
          </mxGeometry>
        </mxCell>
        <mxCell id="BdEMzHyVJXGGS6ea9Wbk-86" value="booking(time)" style="html=1;verticalAlign=bottom;endArrow=block;edgeStyle=elbowEdgeStyle;elbow=vertical;curved=0;rounded=0;fontSize=12;startSize=8;endSize=8;" parent="1" source="BdEMzHyVJXGGS6ea9Wbk-55" target="BdEMzHyVJXGGS6ea9Wbk-87" edge="1">
          <mxGeometry width="80" relative="1" as="geometry">
            <mxPoint x="550" y="1020" as="sourcePoint" />
            <mxPoint x="630" y="1020" as="targetPoint" />
            <Array as="points">
              <mxPoint x="468" y="1160" />
            </Array>
          </mxGeometry>
        </mxCell>
        <mxCell id="BdEMzHyVJXGGS6ea9Wbk-91" value="return" style="html=1;verticalAlign=bottom;endArrow=open;dashed=1;endSize=8;edgeStyle=elbowEdgeStyle;elbow=vertical;curved=0;rounded=0;fontSize=12;" parent="1" source="BdEMzHyVJXGGS6ea9Wbk-89" target="BdEMzHyVJXGGS6ea9Wbk-87" edge="1">
          <mxGeometry relative="1" as="geometry">
            <mxPoint x="890" y="1255" as="targetPoint" />
            <Array as="points">
              <mxPoint x="790" y="1260" />
            </Array>
          </mxGeometry>
        </mxCell>
        <mxCell id="BdEMzHyVJXGGS6ea9Wbk-92" value="return" style="html=1;verticalAlign=bottom;endArrow=open;dashed=1;endSize=8;edgeStyle=elbowEdgeStyle;elbow=vertical;curved=0;rounded=0;fontSize=12;" parent="1" source="BdEMzHyVJXGGS6ea9Wbk-87" target="BdEMzHyVJXGGS6ea9Wbk-53" edge="1">
          <mxGeometry relative="1" as="geometry">
            <mxPoint x="630" y="1020" as="sourcePoint" />
            <mxPoint x="550" y="1020" as="targetPoint" />
            <Array as="points">
              <mxPoint x="440" y="1280" />
            </Array>
          </mxGeometry>
        </mxCell>
        <mxCell id="BdEMzHyVJXGGS6ea9Wbk-94" value="frame" style="shape=umlFrame;whiteSpace=wrap;html=1;pointerEvents=0;fontSize=16;" parent="1" vertex="1">
          <mxGeometry x="40" y="650" width="970" height="710" as="geometry" />
        </mxCell>
        <mxCell id="BdEMzHyVJXGGS6ea9Wbk-96" value="" style="shape=umlLifeline;perimeter=lifelinePerimeter;whiteSpace=wrap;html=1;container=1;dropTarget=0;collapsible=0;recursiveResize=0;outlineConnect=0;portConstraint=eastwest;newEdgeStyle={&quot;edgeStyle&quot;:&quot;elbowEdgeStyle&quot;,&quot;elbow&quot;:&quot;vertical&quot;,&quot;curved&quot;:0,&quot;rounded&quot;:0};participant=umlActor;fontSize=16;" parent="1" vertex="1">
          <mxGeometry x="85" y="1410" width="20" height="460" as="geometry" />
        </mxCell>
        <mxCell id="BdEMzHyVJXGGS6ea9Wbk-103" value="" style="html=1;points=[];perimeter=orthogonalPerimeter;outlineConnect=0;targetShapes=umlLifeline;portConstraint=eastwest;newEdgeStyle={&quot;edgeStyle&quot;:&quot;elbowEdgeStyle&quot;,&quot;elbow&quot;:&quot;vertical&quot;,&quot;curved&quot;:0,&quot;rounded&quot;:0};fontSize=16;" parent="BdEMzHyVJXGGS6ea9Wbk-96" vertex="1">
          <mxGeometry x="5" y="60" width="10" height="400" as="geometry" />
        </mxCell>
        <mxCell id="BdEMzHyVJXGGS6ea9Wbk-97" value="" style="shape=umlLifeline;perimeter=lifelinePerimeter;whiteSpace=wrap;html=1;container=1;dropTarget=0;collapsible=0;recursiveResize=0;outlineConnect=0;portConstraint=eastwest;newEdgeStyle={&quot;edgeStyle&quot;:&quot;elbowEdgeStyle&quot;,&quot;elbow&quot;:&quot;vertical&quot;,&quot;curved&quot;:0,&quot;rounded&quot;:0};participant=umlBoundary;fontSize=16;" parent="1" vertex="1">
          <mxGeometry x="200" y="1410" width="50" height="450" as="geometry" />
        </mxCell>
        <mxCell id="BdEMzHyVJXGGS6ea9Wbk-104" value="" style="html=1;points=[];perimeter=orthogonalPerimeter;outlineConnect=0;targetShapes=umlLifeline;portConstraint=eastwest;newEdgeStyle={&quot;edgeStyle&quot;:&quot;elbowEdgeStyle&quot;,&quot;elbow&quot;:&quot;vertical&quot;,&quot;curved&quot;:0,&quot;rounded&quot;:0};fontSize=16;" parent="BdEMzHyVJXGGS6ea9Wbk-97" vertex="1">
          <mxGeometry x="20" y="90" width="10" height="360" as="geometry" />
        </mxCell>
        <mxCell id="BdEMzHyVJXGGS6ea9Wbk-112" value="" style="html=1;points=[];perimeter=orthogonalPerimeter;outlineConnect=0;targetShapes=umlLifeline;portConstraint=eastwest;newEdgeStyle={&quot;edgeStyle&quot;:&quot;elbowEdgeStyle&quot;,&quot;elbow&quot;:&quot;vertical&quot;,&quot;curved&quot;:0,&quot;rounded&quot;:0};fontSize=16;" parent="BdEMzHyVJXGGS6ea9Wbk-97" vertex="1">
          <mxGeometry x="25" y="240" width="10" height="40" as="geometry" />
        </mxCell>
        <mxCell id="BdEMzHyVJXGGS6ea9Wbk-113" value="render" style="html=1;align=left;spacingLeft=2;endArrow=block;rounded=0;edgeStyle=orthogonalEdgeStyle;curved=0;rounded=0;fontSize=12;startSize=8;endSize=8;" parent="BdEMzHyVJXGGS6ea9Wbk-97" target="BdEMzHyVJXGGS6ea9Wbk-112" edge="1">
          <mxGeometry relative="1" as="geometry">
            <mxPoint x="30" y="220" as="sourcePoint" />
            <Array as="points">
              <mxPoint x="60" y="250" />
            </Array>
          </mxGeometry>
        </mxCell>
        <mxCell id="BdEMzHyVJXGGS6ea9Wbk-98" value="" style="shape=umlLifeline;perimeter=lifelinePerimeter;whiteSpace=wrap;html=1;container=1;dropTarget=0;collapsible=0;recursiveResize=0;outlineConnect=0;portConstraint=eastwest;newEdgeStyle={&quot;edgeStyle&quot;:&quot;elbowEdgeStyle&quot;,&quot;elbow&quot;:&quot;vertical&quot;,&quot;curved&quot;:0,&quot;rounded&quot;:0};participant=umlControl;fontSize=16;" parent="1" vertex="1">
          <mxGeometry x="335" y="1410" width="40" height="220" as="geometry" />
        </mxCell>
        <mxCell id="BdEMzHyVJXGGS6ea9Wbk-107" value="" style="html=1;points=[];perimeter=orthogonalPerimeter;outlineConnect=0;targetShapes=umlLifeline;portConstraint=eastwest;newEdgeStyle={&quot;edgeStyle&quot;:&quot;elbowEdgeStyle&quot;,&quot;elbow&quot;:&quot;vertical&quot;,&quot;curved&quot;:0,&quot;rounded&quot;:0};fontSize=16;" parent="BdEMzHyVJXGGS6ea9Wbk-98" vertex="1">
          <mxGeometry x="15" y="110" width="10" height="80" as="geometry" />
        </mxCell>
        <mxCell id="BdEMzHyVJXGGS6ea9Wbk-99" value="" style="shape=umlLifeline;perimeter=lifelinePerimeter;whiteSpace=wrap;html=1;container=1;dropTarget=0;collapsible=0;recursiveResize=0;outlineConnect=0;portConstraint=eastwest;newEdgeStyle={&quot;edgeStyle&quot;:&quot;elbowEdgeStyle&quot;,&quot;elbow&quot;:&quot;vertical&quot;,&quot;curved&quot;:0,&quot;rounded&quot;:0};participant=umlEntity;fontSize=16;" parent="1" vertex="1">
          <mxGeometry x="460" y="1410" width="40" height="190" as="geometry" />
        </mxCell>
        <mxCell id="BdEMzHyVJXGGS6ea9Wbk-108" value="" style="html=1;points=[];perimeter=orthogonalPerimeter;outlineConnect=0;targetShapes=umlLifeline;portConstraint=eastwest;newEdgeStyle={&quot;edgeStyle&quot;:&quot;elbowEdgeStyle&quot;,&quot;elbow&quot;:&quot;vertical&quot;,&quot;curved&quot;:0,&quot;rounded&quot;:0};fontSize=16;" parent="BdEMzHyVJXGGS6ea9Wbk-99" vertex="1">
          <mxGeometry x="15" y="130" width="10" height="30" as="geometry" />
        </mxCell>
        <mxCell id="BdEMzHyVJXGGS6ea9Wbk-109" value="getShop(id)" style="html=1;verticalAlign=bottom;startArrow=oval;endArrow=block;startSize=8;edgeStyle=elbowEdgeStyle;elbow=vertical;curved=0;rounded=0;fontSize=12;" parent="BdEMzHyVJXGGS6ea9Wbk-99" target="BdEMzHyVJXGGS6ea9Wbk-108" edge="1">
          <mxGeometry relative="1" as="geometry">
            <mxPoint x="-100" y="130" as="sourcePoint" />
            <Array as="points">
              <mxPoint x="-100" y="130" />
            </Array>
          </mxGeometry>
        </mxCell>
        <mxCell id="BdEMzHyVJXGGS6ea9Wbk-100" value="ShopView" style="text;html=1;align=center;verticalAlign=middle;resizable=0;points=[];autosize=1;strokeColor=none;fillColor=none;fontSize=16;" parent="1" vertex="1">
          <mxGeometry x="175" y="1380" width="100" height="30" as="geometry" />
        </mxCell>
        <mxCell id="BdEMzHyVJXGGS6ea9Wbk-101" value="ShopController" style="text;html=1;align=center;verticalAlign=middle;resizable=0;points=[];autosize=1;strokeColor=none;fillColor=none;fontSize=16;" parent="1" vertex="1">
          <mxGeometry x="285" y="1378" width="130" height="30" as="geometry" />
        </mxCell>
        <mxCell id="BdEMzHyVJXGGS6ea9Wbk-102" value="ShopModel" style="text;html=1;align=center;verticalAlign=middle;resizable=0;points=[];autosize=1;strokeColor=none;fillColor=none;fontSize=16;" parent="1" vertex="1">
          <mxGeometry x="430" y="1378" width="100" height="30" as="geometry" />
        </mxCell>
        <mxCell id="BdEMzHyVJXGGS6ea9Wbk-105" value="1. viewShop" style="html=1;verticalAlign=bottom;endArrow=block;edgeStyle=elbowEdgeStyle;elbow=vertical;curved=0;rounded=0;fontSize=12;startSize=8;endSize=8;" parent="1" source="BdEMzHyVJXGGS6ea9Wbk-103" edge="1">
          <mxGeometry width="80" relative="1" as="geometry">
            <mxPoint x="150" y="1500" as="sourcePoint" />
            <mxPoint x="230" y="1500" as="targetPoint" />
          </mxGeometry>
        </mxCell>
        <mxCell id="BdEMzHyVJXGGS6ea9Wbk-106" value="getShopDetail(shopId)" style="html=1;verticalAlign=bottom;endArrow=block;edgeStyle=elbowEdgeStyle;elbow=vertical;curved=0;rounded=0;fontSize=12;startSize=8;endSize=8;" parent="1" target="BdEMzHyVJXGGS6ea9Wbk-107" edge="1">
          <mxGeometry width="80" relative="1" as="geometry">
            <mxPoint x="230" y="1520" as="sourcePoint" />
            <mxPoint x="310" y="1520" as="targetPoint" />
          </mxGeometry>
        </mxCell>
        <mxCell id="BdEMzHyVJXGGS6ea9Wbk-110" value="return" style="html=1;verticalAlign=bottom;endArrow=open;dashed=1;endSize=8;edgeStyle=elbowEdgeStyle;elbow=vertical;curved=0;rounded=0;fontSize=12;" parent="1" target="BdEMzHyVJXGGS6ea9Wbk-98" edge="1">
          <mxGeometry relative="1" as="geometry">
            <mxPoint x="480" y="1560" as="sourcePoint" />
            <mxPoint x="400" y="1560" as="targetPoint" />
          </mxGeometry>
        </mxCell>
        <mxCell id="BdEMzHyVJXGGS6ea9Wbk-111" value="return" style="html=1;verticalAlign=bottom;endArrow=open;dashed=1;endSize=8;edgeStyle=elbowEdgeStyle;elbow=vertical;curved=0;rounded=0;fontSize=12;" parent="1" target="BdEMzHyVJXGGS6ea9Wbk-97" edge="1">
          <mxGeometry relative="1" as="geometry">
            <mxPoint x="350" y="1600" as="sourcePoint" />
            <mxPoint x="270" y="1600" as="targetPoint" />
          </mxGeometry>
        </mxCell>
        <mxCell id="BdEMzHyVJXGGS6ea9Wbk-114" value="" style="shape=umlLifeline;perimeter=lifelinePerimeter;whiteSpace=wrap;html=1;container=1;dropTarget=0;collapsible=0;recursiveResize=0;outlineConnect=0;portConstraint=eastwest;newEdgeStyle={&quot;edgeStyle&quot;:&quot;elbowEdgeStyle&quot;,&quot;elbow&quot;:&quot;vertical&quot;,&quot;curved&quot;:0,&quot;rounded&quot;:0};participant=umlEntity;fontSize=16;" parent="1" vertex="1">
          <mxGeometry x="765" y="1410" width="40" height="460" as="geometry" />
        </mxCell>
        <mxCell id="BdEMzHyVJXGGS6ea9Wbk-123" value="" style="html=1;points=[];perimeter=orthogonalPerimeter;outlineConnect=0;targetShapes=umlLifeline;portConstraint=eastwest;newEdgeStyle={&quot;edgeStyle&quot;:&quot;elbowEdgeStyle&quot;,&quot;elbow&quot;:&quot;vertical&quot;,&quot;curved&quot;:0,&quot;rounded&quot;:0};fontSize=16;" parent="BdEMzHyVJXGGS6ea9Wbk-114" vertex="1">
          <mxGeometry x="20" y="380" width="10" height="60" as="geometry" />
        </mxCell>
        <mxCell id="BdEMzHyVJXGGS6ea9Wbk-115" value="" style="shape=umlLifeline;perimeter=lifelinePerimeter;whiteSpace=wrap;html=1;container=1;dropTarget=0;collapsible=0;recursiveResize=0;outlineConnect=0;portConstraint=eastwest;newEdgeStyle={&quot;edgeStyle&quot;:&quot;elbowEdgeStyle&quot;,&quot;elbow&quot;:&quot;vertical&quot;,&quot;curved&quot;:0,&quot;rounded&quot;:0};participant=umlControl;fontSize=16;" parent="1" vertex="1">
          <mxGeometry x="620" y="1410" width="40" height="460" as="geometry" />
        </mxCell>
        <mxCell id="BdEMzHyVJXGGS6ea9Wbk-120" value="" style="html=1;points=[];perimeter=orthogonalPerimeter;outlineConnect=0;targetShapes=umlLifeline;portConstraint=eastwest;newEdgeStyle={&quot;edgeStyle&quot;:&quot;elbowEdgeStyle&quot;,&quot;elbow&quot;:&quot;vertical&quot;,&quot;curved&quot;:0,&quot;rounded&quot;:0};fontSize=16;" parent="BdEMzHyVJXGGS6ea9Wbk-115" vertex="1">
          <mxGeometry x="10" y="370" width="10" height="80" as="geometry" />
        </mxCell>
        <mxCell id="BdEMzHyVJXGGS6ea9Wbk-116" value="ReviewControlelr" style="text;html=1;align=center;verticalAlign=middle;resizable=0;points=[];autosize=1;strokeColor=none;fillColor=none;fontSize=16;" parent="1" vertex="1">
          <mxGeometry x="565" y="1378" width="150" height="30" as="geometry" />
        </mxCell>
        <mxCell id="BdEMzHyVJXGGS6ea9Wbk-117" value="ReviewModel" style="text;html=1;align=center;verticalAlign=middle;resizable=0;points=[];autosize=1;strokeColor=none;fillColor=none;fontSize=16;" parent="1" vertex="1">
          <mxGeometry x="720" y="1378" width="120" height="30" as="geometry" />
        </mxCell>
        <mxCell id="BdEMzHyVJXGGS6ea9Wbk-118" value="return" style="html=1;verticalAlign=bottom;endArrow=open;dashed=1;endSize=8;edgeStyle=elbowEdgeStyle;elbow=vertical;curved=0;rounded=0;fontSize=12;" parent="1" target="BdEMzHyVJXGGS6ea9Wbk-103" edge="1">
          <mxGeometry relative="1" as="geometry">
            <mxPoint x="220" y="1700" as="sourcePoint" />
            <mxPoint x="140" y="1700" as="targetPoint" />
          </mxGeometry>
        </mxCell>
        <mxCell id="BdEMzHyVJXGGS6ea9Wbk-119" value="2. create Review" style="html=1;verticalAlign=bottom;endArrow=block;edgeStyle=elbowEdgeStyle;elbow=vertical;curved=0;rounded=0;fontSize=12;startSize=8;endSize=8;" parent="1" source="BdEMzHyVJXGGS6ea9Wbk-103" edge="1">
          <mxGeometry width="80" relative="1" as="geometry">
            <mxPoint x="150" y="1750" as="sourcePoint" />
            <mxPoint x="230" y="1750" as="targetPoint" />
          </mxGeometry>
        </mxCell>
        <mxCell id="BdEMzHyVJXGGS6ea9Wbk-122" value="return" style="html=1;verticalAlign=bottom;endArrow=open;dashed=1;endSize=8;edgeStyle=elbowEdgeStyle;elbow=vertical;curved=0;rounded=0;fontSize=12;" parent="1" source="BdEMzHyVJXGGS6ea9Wbk-120" target="BdEMzHyVJXGGS6ea9Wbk-104" edge="1">
          <mxGeometry relative="1" as="geometry">
            <mxPoint x="560" y="1855" as="targetPoint" />
            <Array as="points">
              <mxPoint x="520" y="1850" />
            </Array>
          </mxGeometry>
        </mxCell>
        <mxCell id="BdEMzHyVJXGGS6ea9Wbk-121" value="createReview(userId, shopId, reivew)" style="html=1;verticalAlign=bottom;endArrow=block;edgeStyle=elbowEdgeStyle;elbow=vertical;curved=0;rounded=0;fontSize=12;startSize=8;endSize=8;" parent="1" source="BdEMzHyVJXGGS6ea9Wbk-104" target="BdEMzHyVJXGGS6ea9Wbk-120" edge="1">
          <mxGeometry relative="1" as="geometry">
            <mxPoint x="560" y="1780" as="sourcePoint" />
            <Array as="points">
              <mxPoint x="240" y="1780" />
            </Array>
          </mxGeometry>
        </mxCell>
        <mxCell id="BdEMzHyVJXGGS6ea9Wbk-124" value="create(userId, shopId, review)" style="html=1;verticalAlign=bottom;endArrow=block;edgeStyle=elbowEdgeStyle;elbow=vertical;curved=0;rounded=0;fontSize=12;startSize=8;endSize=8;" parent="1" source="BdEMzHyVJXGGS6ea9Wbk-115" target="BdEMzHyVJXGGS6ea9Wbk-123" edge="1">
          <mxGeometry x="-0.0279" y="10" relative="1" as="geometry">
            <mxPoint x="715" y="1790" as="sourcePoint" />
            <Array as="points">
              <mxPoint x="690" y="1800" />
            </Array>
            <mxPoint as="offset" />
          </mxGeometry>
        </mxCell>
        <mxCell id="BdEMzHyVJXGGS6ea9Wbk-125" value="return" style="html=1;verticalAlign=bottom;endArrow=open;dashed=1;endSize=8;edgeStyle=elbowEdgeStyle;elbow=vertical;curved=0;rounded=0;fontSize=12;" parent="1" source="BdEMzHyVJXGGS6ea9Wbk-123" target="BdEMzHyVJXGGS6ea9Wbk-115" edge="1">
          <mxGeometry relative="1" as="geometry">
            <mxPoint x="715" y="1865" as="targetPoint" />
            <Array as="points">
              <mxPoint x="730" y="1840" />
              <mxPoint x="630" y="1860" />
            </Array>
          </mxGeometry>
        </mxCell>
        <mxCell id="BdEMzHyVJXGGS6ea9Wbk-127" value="return" style="html=1;verticalAlign=bottom;endArrow=open;dashed=1;endSize=8;edgeStyle=elbowEdgeStyle;elbow=vertical;curved=0;rounded=0;fontSize=12;" parent="1" target="BdEMzHyVJXGGS6ea9Wbk-103" edge="1">
          <mxGeometry relative="1" as="geometry">
            <mxPoint x="220" y="1860" as="sourcePoint" />
            <mxPoint x="140" y="1860" as="targetPoint" />
          </mxGeometry>
        </mxCell>
        <mxCell id="BdEMzHyVJXGGS6ea9Wbk-128" value="Client" style="text;html=1;align=center;verticalAlign=middle;resizable=0;points=[];autosize=1;strokeColor=none;fillColor=none;fontSize=16;" parent="1" vertex="1">
          <mxGeometry x="70" y="1368" width="60" height="30" as="geometry" />
        </mxCell>
      </root>
    </mxGraphModel>
  </diagram>
</mxfile>
